<svg width="110" height="110" viewBox="0 0 110 110" fill="none" xmlns="http://www.w3.org/2000/svg">
<g clip-path="url(#clip0_1_5)">
<mask id="mask0_1_5" style="mask-type:luminance" maskUnits="userSpaceOnUse" x="0" y="0" width="110" height="110">
<path d="M110 0H0V110H110V0Z" fill="white"/>
</mask>
<g mask="url(#mask0_1_5)">
<path d="M47.9893 69.6667C42.7486 69.6667 38.4853 70.2533 35.2 71.4267C31.9147 72.6781 29.4507 74.3992 27.808 76.5893C26.1653 78.8579 25.1093 81.4781 24.64 84.4507L23.232 79.5227C24.3271 83.6686 27.0258 86.4061 31.328 87.736C35.6302 89.0659 41.3406 89.7307 48.4587 89.7307H71.6907V90.6693L68.4053 99.704H42.3573C38.2899 99.704 34.3005 99 30.3893 97.592C26.4782 96.2621 23.2711 94.2674 20.768 91.608C18.2649 88.9486 17.0133 85.7021 17.0133 81.8693C17.0133 79.6792 17.5218 77.2933 18.5387 74.712C19.6338 72.2088 21.3938 69.8232 23.8187 67.5547C26.3218 65.208 29.7245 63.3307 34.0267 61.9227C38.3288 60.4366 43.7653 59.6933 50.336 59.6933H78.9653L75.9147 61.1013C72.3166 59.0674 68.1707 55.8213 63.4773 51.3627C58.8621 46.8259 53.7779 41.2328 48.224 34.584C42.7486 27.8569 36.8819 20.152 30.624 11.4693L38.1333 4.42933H39.072C46.6594 15.3805 53.4259 24.376 59.3707 31.416C65.3939 38.456 70.5954 43.9707 74.976 47.96C79.3566 51.9493 82.9154 54.8434 85.6533 56.6427C88.4693 58.4419 90.464 59.6541 91.6373 60.28L87.8827 69.6667H47.9893Z" fill="white"/>
</g>
</g>
<defs>
<clipPath id="clip0_1_5">
<rect width="110" height="110" fill="white"/>
</clipPath>
</defs>
</svg>
